<svg width="20" height="20" viewBox="0 0 20 20" fill="none" xmlns="http://www.w3.org/2000/svg"><defs><style type="text/css"></style></defs><path d="M17.0868 13.0205C16.7199 13.2586 16.2956 13.3936 15.8584 13.4112C15.4213 13.4288 14.9876 13.3284 14.6026 13.1205C13.7561 12.6458 13.2729 11.6842 13.2729 10.4811V8.83895C13.22 8.91605 13.1603 9.00474 13.0982 9.10921L11.1034 12.3382C10.4321 13.4282 9.79184 13.5124 9.37316 13.3908C8.95395 13.2684 8.45526 12.8518 8.45526 11.5645V8.88553L4.84316 14.6911C4.90526 14.7597 4.96711 14.8284 5.03132 14.895C7.63553 17.6426 11.9747 17.7558 14.7203 15.1521L14.7247 15.1476C14.7987 15.0807 14.8852 15.029 14.9791 14.9956C15.0731 14.9621 15.1728 14.9476 15.2724 14.9527C15.372 14.9578 15.4696 14.9826 15.5597 15.0255C15.6497 15.0684 15.7304 15.1287 15.7971 15.2029C15.8855 15.2989 15.9486 15.4155 15.9808 15.542C16.013 15.6685 16.0131 15.801 15.9813 15.9276C14.4539 17.4679 12.3397 18.4211 9.99947 18.4211C5.35053 18.4211 1.57895 14.6513 1.57895 10C1.57895 5.35053 5.35105 1.57895 10 1.57895C14.6516 1.57895 18.4211 5.35079 18.4211 10C18.4215 10.4445 18.3868 10.8883 18.3174 11.3274C18.1042 12.0458 17.6832 12.6326 17.0871 13.0208L17.0868 13.0205ZM10 0C4.47711 0 0 4.47711 0 10C0 15.5232 4.47737 20 10 20C15.5226 20 20 15.5232 20 10C20 4.47711 15.5226 0 10 0Z"></path></svg>